<svg xmlns="http://www.w3.org/2000/svg" viewBox="0 0 25.26 25.51"><defs><style>.cls-1{fill:#f8c712;}.cls-2{fill:#1d1b11;}</style></defs><title>Recurso 7</title><g id="Capa_2" data-name="Capa 2"><g id="Capa_1-2" data-name="Capa 1"><path class="cls-1" d="M25.26,13.09c0,12.42,0,12.42-12.36,12.42C0,25.51,0,25.51,0,12.61,0,0,0,0,12.61,0S25.26,0,25.26,13.09Z"/><path class="cls-2" d="M17.86,20.68c-4.64.23-13-8.39-12.77-12.66.1-1.55.94-2.91,2.25-2.73,1.95.27,2.87,2,2.72,4-.38,5,1.3,6.63,6.46,6.25A3.45,3.45,0,0,1,20.29,18C20.71,19.84,19.12,20.48,17.86,20.68Z"/></g></g></svg>