<svg xmlns="http://www.w3.org/2000/svg" viewBox="0 0 25.27 25.51"><defs><style>.cls-1{fill:#f7c612;}.cls-2{fill:#282212;}.cls-3{fill:#302913;}.cls-4{fill:#1f1b11;}</style></defs><title>Recurso 6</title><g id="Capa_2" data-name="Capa 2"><g id="Capa_1-2" data-name="Capa 1"><path class="cls-1" d="M25.27,13c0,12.53,0,12.53-12.73,12.53C0,25.51,0,25.51,0,12.8S0,0,13,0C25.27,0,25.27,0,25.27,13Z"/><path class="cls-2" d="M6.16,15.76c-3.38-2.22-.75-5-.4-7.34.32-2.11,2.76-.88,4.22-1,2.63-.2,5.29-.07,7.94,0,3.11,0,1.24,1.72.93,2.88C18.65,12,17,11.9,16,12.64c-1.82,1.4-4.55.18-6.18,2.15C8.75,15.75,7.78,17,6.16,15.76Z"/><path class="cls-3" d="M6.16,15.76a3.84,3.84,0,0,0,3-1.51c2.59-1.72,5.33-1.16,8.08-.54a3.21,3.21,0,0,1,2,2c.23,1.06,1.68,2.59-.93,2.6-3.76,0-7.52.05-11.28,0C4.42,18.32,5.79,16.85,6.16,15.76Z"/><path class="cls-4" d="M19.23,15.76l-1.88-1C16.23,14,15,13.25,16.23,11.62l2.63-1.35C21.45,11.94,21,13.81,19.23,15.76Z"/><path class="cls-1" d="M16.23,11.62c-.5,1.36.47,2.2,1.12,3.16a11.8,11.8,0,0,0-8.21-.53c.43-.69-.05-2.72,1.15-2C12.68,13.7,14.29,12,16.23,11.62Z"/></g></g></svg>