<svg xmlns="http://www.w3.org/2000/svg" viewBox="0 0 104.86 104.8"><defs><style>.cls-1{fill:#fac812;}.cls-2{fill:#756732;}.cls-3{fill:#f9c812;}</style></defs><title>Recurso 2</title><g id="Capa_2" data-name="Capa 2"><g id="Capa_1-2" data-name="Capa 1"><path class="cls-1" d="M52.28.05c15.33,0,30.66.09,46,0,4.63,0,6.61,1.59,6.59,6.41q-.18,46,0,92c0,4.84-2,6.45-6.58,6.44-30.48-.09-61,0-91.45-.06-5.94,0-6.82-1-6.82-7.09Q0,52.43,0,7.19C0,.92.91.07,7.31.06Q29.8,0,52.28.05Z"/><path class="cls-2" d="M51.12,82.05c-7.5,0-15-.08-22.5,0-2.73,0-3.86-.79-3.84-3.68q.15-22.74,0-45.49c0-3.26,1.36-3.89,4.2-3.82,6.49.14,13-.05,19.49.08,2.71.06,4.49-.59,6.1-3.11,5.12-8,13.88-11.49,22.33-9.39C86.2,19,92.26,26,93.42,35.71c1,8.14-4.17,16.84-12.7,20.72-2.45,1.12-3,2.5-3,4.92.14,5.66-.07,11.33.09,17,.08,2.82-.91,4.06-3.73,3.72a4.17,4.17,0,0,0-.5,0Z"/><path class="cls-1" d="M51.12,80c-6.67,0-13.33-.14-20,.06-3.14.09-4.4-.72-4.36-4.13.17-13.66.12-27.32,0-41,0-2.63.47-4,3.52-3.88,6.16.2,12.33.14,18.49,0,2.56-.05,2.95.9,2.69,3.29C50,47.4,58.84,57.81,71.73,58.1c3.4.08,4.25,1.15,4.1,4.3-.22,4.65-.19,9.33,0,14,.11,2.85-.91,3.76-3.73,3.7C65.11,79.92,58.11,80,51.12,80Z"/><path class="cls-3" d="M55.62,29.14c3.46-10.34,17.39-14.3,27.16-8A19.27,19.27,0,0,1,81.9,54c-2.61,1.47-4.25,1.72-4.15-2.21.17-6.31-.06-12.62.09-18.93.07-2.84-1-3.79-3.77-3.72C68,29.24,61.84,29.14,55.62,29.14Z"/><path class="cls-1" d="M75.78,43.91v6c0,6.61-.52,7.06-7.08,6.12-9.26-1.33-17-11.53-15.67-20.67.39-2.81,1.35-4.49,4.74-4.26a110.53,110.53,0,0,0,14,0c3.45-.21,4.32,1.18,4.07,4.32C75.6,38.23,75.78,41.07,75.78,43.91Z"/></g></g></svg>