<svg xmlns="http://www.w3.org/2000/svg" viewBox="0 0 104.44 104.71"><defs><style>.cls-1{fill:#fac812;}.cls-2{fill:#5a543d;}.cls-3{fill:#f9c812;}.cls-4{fill:#e8bb14;}.cls-5{fill:#e6b914;}.cls-6{fill:#dfb416;}.cls-7{fill:#e5b815;}.cls-8{fill:#534f3f;}.cls-9{fill:#f3c312;}.cls-10{fill:#f4c412;}.cls-11{fill:#ebbd13;}.cls-12{fill:#e9bb14;}</style></defs><title>Recurso 1</title><g id="Capa_2" data-name="Capa 2"><g id="Capa_1-2" data-name="Capa 1"><path class="cls-1" d="M0,52.12Q0,29.38,0,6.64C0,.82.81,0,6.69,0q45.48,0,91,0c5.89,0,6.75.83,6.76,6.59q0,45.72,0,91.46c0,5.76-.86,6.62-6.73,6.62q-45.48,0-91,0c-5.88,0-6.7-.85-6.71-6.58Q0,75.12,0,52.12Z"/><path class="cls-2" d="M25.77,52.08c0-5.16,0-10.32,0-15.48,0-2.51.82-5.23-2.79-6.54-1.58-.57-1.34-8.51.06-8.66,2.81-.32,6.39-2.47,8.27,1.47,1,2.09,2.48,1.88,4.09,1.88q16.74,0,33.47,0c1.57,0,3.17.38,4.13-1.8s7.7-3.14,8.48-1.36c1.25,2.82,2.07,6.55-.55,8.67-2,1.61-2.06,3.1-2.07,5,0,10.82,0,21.65,0,32.47,0,2.58-1.08,5.54,2.69,7.06,1.49.61.83,8.69-.43,8.69-2.8,0-6.45,2.49-8.19-1.78-.82-2-2.32-1.58-3.7-1.59q-17-.06-34,0c-1.63,0-3.16-.21-4,2-1.23,3.3-4.3,1.35-6.54,1.7a2,2,0,0,1-2.58-2.27c.25-2.47-1.67-5.86,1.4-7.19,2.45-1.06,2.16-2.56,2.17-4.29C25.79,64.07,25.77,58.08,25.77,52.08Z"/><path class="cls-3" d="M76.74,52.48V67c0,8.36-2.61,10.94-11,10.94-9.82,0-19.65,0-29.48,0-4.22,0-8.18-3.72-8.2-7.78Q28,52.39,28,34.65a8.29,8.29,0,0,1,7.76-7.78q16.49,0,33,0c3.68,0,7.94,4.37,8,8.13C76.77,40.82,76.74,46.65,76.74,52.48Z"/><path class="cls-4" d="M77.71,28.69c-1.88.2-2.76-.62-2.66-2.56.08-1.51-.13-3,2.16-3.09,2.11-.08,3.06.61,3,2.82C80.11,27.57,79.83,28.85,77.71,28.69Z"/><path class="cls-5" d="M77.4,81.78c-2.18.2-2.33-1.21-2.36-2.86s.44-2.76,2.48-2.79c2.38,0,2.66,1.27,2.66,3.16S79.24,82,77.4,81.78Z"/><path class="cls-6" d="M26.84,81.82c-1.86.19-2.68-.63-2.68-2.53s.19-3.21,2.57-3.18c2.06,0,2.45,1.12,2.43,2.83S29,82,26.84,81.82Z"/><path class="cls-7" d="M26.33,23.1c2-.26,2.91.47,2.8,2.4-.08,1.41.31,3.08-1.94,3.21-2,.11-3.09-.61-3-2.78C24.25,24.37,24.21,22.85,26.33,23.1Z"/><path class="cls-8" d="M36.16,70.51c-2.52.41-2.37-1.35-2-2.79,1.55-5.66,2.16-11.51,7.43-15.78,5.78-4.69,10.78-10.37,16-15.76,2.51-2.61,4.38-2.63,7.06,0,7.42,7.17,7.52,7.07.43,14.15-4.47,4.46-9.35,8.6-13.31,13.49C47.58,69,41.6,68.81,36.16,70.51Z"/><path class="cls-9" d="M47.13,64.74c-1.15,0-1.7-.93-2.32-1.66s-.11-1.53.47-2.11c4.9-4.92,9.83-9.82,14.72-14.75,1.07-1.08,1.93-.92,2.9.12.73.78,1.42,1.64.53,2.55C58.32,54.07,53.16,59.19,48,64.32A3.06,3.06,0,0,1,47.13,64.74Z"/><path class="cls-10" d="M57,40.6a11.72,11.72,0,0,1,1.77,1.67c.74,1,.1,1.85-.63,2.59L44,58.92c-.87.88-1.8,1.56-3,.5-.93-.84-1.67-1.89-.6-3,5-5.09,10-10.12,15.06-15.14A5.52,5.52,0,0,1,57,40.6Z"/><path class="cls-11" d="M68.12,43.52c-.37,1.09-1.22,2.66-2.2,2.11a16.77,16.77,0,0,1-6.83-6.88c-.51-1,.69-2.13,1.91-2.38S68.15,42.23,68.12,43.52Z"/><path class="cls-12" d="M38.42,60.54c2,.45,2.8,2.22,4.11,3.38.69.61,1.87,1.41,1.16,2.39s-2.11.75-3-.07C39,64.77,36.81,63.41,38.42,60.54Z"/></g></g></svg>