<svg xmlns="http://www.w3.org/2000/svg" viewBox="0 0 28.54 28.69"><defs><style>.cls-1{fill:#f8c712;}.cls-2{fill:#1a1812;}</style></defs><title>Recurso 8</title><g id="Capa_2" data-name="Capa 2"><g id="Capa_1-2" data-name="Capa 1"><path class="cls-1" d="M14.33,28.66C0,28.67,0,28.67,0,14.3c0-3.32.11-6.65,0-10C-.12,1.41,1,0,4,0Q14.24.08,24.46,0c2.6,0,4.09.9,4.08,3.73-.05,7.15,0,14.3,0,21.44,0,2.5-1.22,3.58-3.72,3.51C21.31,28.59,17.82,28.66,14.33,28.66Z"/><path class="cls-2" d="M17,16.94c-1-1.43-4.08-1.06-2.8-3.35,1.07-1.92,3.31-.62,5-.86,1.95-.27,2.15,1.06,2,2.54a6.55,6.55,0,0,1-5.2,6c-3.54,1-6.24-.55-7.94-3.63A6.44,6.44,0,0,1,9.33,9.41C11.58,7.14,14.36,7,17.22,8c.75.24,1.58.81,1.1,1.84-.59,1.3-1.67,1.39-3,1a3.27,3.27,0,0,0-4.19,1.76,3.58,3.58,0,0,0,.38,4.22C13,18.42,14.76,18.28,17,16.94Z"/></g></g></svg>