<svg xmlns="http://www.w3.org/2000/svg" viewBox="0 0 95.37 95.18"><defs><style>.cls-1{fill:#999195;}.cls-2{fill:#131114;}.cls-3{fill:#0b0a09;}.cls-4{fill:#f8ac10;}.cls-5{fill:#19a6c4;}.cls-6{fill:#791586;}.cls-7{fill:#38aa8d;}.cls-8{fill:#539d93;}.cls-9{fill:#bdc5d4;}.cls-10{fill:#4695af;}.cls-11{fill:#3b5380;}.cls-12{fill:#882465;}.cls-13{fill:#81babc;}.cls-14{fill:#603681;}.cls-15{fill:#246e9a;}.cls-16{fill:#23276e;}.cls-17{fill:#34898c;}.cls-18{fill:#87adb6;}.cls-19{fill:#909092;}.cls-20{fill:#eff0f1;}.cls-21{fill:#f0c72a;}</style></defs><title>Recurso 16</title><g id="Capa_2" data-name="Capa 2"><g id="Capa_1-2" data-name="Capa 1"><path class="cls-1" d="M95.23,87.91c.22,6.77-.14,7.17-6.76,7.17-27.28,0-54.55-.08-81.82.1C2,95.21.05,93.93.35,89c.41-6.62.18-13.27.23-19.91,1.19-.09,1.8.76,2.35,1.57,2,2.9,4.71,3.55,7.91,2.71,8.37-2.19,16.73-4.49,25.08-6.77C40,65.46,41.18,63,39.69,57.84c-3.22-11-5.48-22.33-8.67-33.37-1.8-6.25-3.25-12.59-4.81-18.89C25.78,3.84,25.06,2,26.33.3Q58.9.2,91.45.07c2.74,0,4,1.2,3.92,3.87,0,2.14,0,4.28-.06,6.41-.16,0-.44,0-.47-.11C91.94,3,86.45,4.42,80.81,6s-11.32,2.84-17,4.3c-7.67,2-8.72,3.85-7.34,11.81,1.09,6.27,3.09,12.29,4.86,18.35,4.21,14.39,7.82,29,11.88,43.38,2,7.12,3.5,7.79,10.84,6.11C87.76,89.06,91.21,86.82,95.23,87.91Z"/><path class="cls-2" d="M26.33.3C31.08,18.87,35.75,37.47,40.62,56c2.2,8.39,1.31,10.31-6.86,12.54-7.2,2-14.41,3.85-21.6,5.85C5.26,76.33,3.48,75.55.58,69.08c-.06-3.15-1.32-7,.07-9.3,2.76-4.47,0-8.57,0-12.6C.92,33.43.34,19.63.84,5.85c2.5-1.51.76-2.76-.25-4C1.41-.25,3.12.05,4.77.25c5.89.72,12-1.69,17.8,1.27C23.22,1.85,24.64-.42,26.33.3Z"/><path class="cls-3" d="M95.23,87.91C90.46,89.3,85.72,90.84,80.91,92c-4.23,1-7.14-.68-8.3-5-6-22.08-12-44.15-17.83-66.26-1.84-7-.33-9.36,6.63-11.25,7.52-2,15.11-3.89,22.66-5.83s9.29-.91,11.24,6.64c-.07,3.2-.13,6.4-.2,9.6-10.47.73-20.21,4.57-30.25,7.13-2.84.72-2.76,3-2,5.2.94,2.57.46,6.39,4.84,6.32,1.78,0,3.58-.88,5.31.18,1.19,1.58-.27,2-1.18,2.56-1.85,1.17-5.34.7-5.21,3.78.14,3.56.48,7.39,3.82,9.87a6.67,6.67,0,0,1,1.12,1c.48,1.45-.93,2.4-1,3.71a19.44,19.44,0,0,0,1.62,7.68c1.26,3.31,4.15,1.71,6.44,1.87a3.24,3.24,0,0,1,1.81.69c.43,2.5-1.77,2.46-3.12,3-3,1.16-2.79,3.33-2.12,5.7.8,2.82,2.84,2.2,4.8,1.63,3.77-1.11,7.87-1.33,11-4.13,2-.63,3,.87,4.1,2,0,.6.09,1.2.14,1.79-1.68,1.18-1.25,2.32,0,3.44C95.38,84.87,93.56,86.35,95.23,87.91Z"/><path class="cls-4" d="M73.5,39.13c-.49,0-1,0-1.47,0-2.73.08-6.16,3-7.9.53-2.07-2.93-2.52-7.05-3.42-10.72-.37-1.5.86-2.33,2.29-2.72l28.23-7.62A3.23,3.23,0,0,1,95.11,20q0,6.53-.08,13c-6.46,3.61-13.66,4.78-20.77,6.26Z"/><path class="cls-5" d="M71.87,56.36c-4,.21-4.73-2.44-5.48-5.59-2-8.33-2.09-8.3,6.11-10.74.39-.11.67-.59,1-.9l-.08.09C79.69,37.45,86,36,92.25,34.07a3.36,3.36,0,0,1,2.84,0q.1,7.5.2,15a6.5,6.5,0,0,1-4,2.69C84.82,53.38,78.67,56.22,71.87,56.36Z"/><path class="cls-6" d="M71.87,56.36c7.52-3.33,15.7-4.56,23.42-7.28q0,8.61.08,17.22a7.65,7.65,0,0,1-1.16.79c-3,1.07-6.23,1.77-9.25,3-1.3.58-2.6,1.34-4,.27-9.28.25-9,.18-11.77-8.84C68.21,58.24,69.55,57.31,71.87,56.36Z"/><path class="cls-7" d="M94.73,66.39a2.3,2.3,0,0,1,.64-.09q-.12,5.91-.23,11.82c-2.19,1-2.63-1.69-4.2-2-1.54-1.32-1-3.28-1.49-4.92C89.28,67.45,92.17,67.1,94.73,66.39Z"/><path class="cls-3" d="M95.09,34.08c-7.32,1.3-14.18,4.53-21.67,5.14,7-2.95,14.33-4.41,21.61-6.23Z"/><path class="cls-8" d="M.59,1.8c1.54.39,4.14-.71,4.16,1.8A2.86,2.86,0,0,1,.84,5.85,5.77,5.77,0,0,1,.59,1.8Z"/><path class="cls-1" d="M95.33,83.35c-1.47-.71-4.67,1-4.06-2.53.46-2.6,2.56-1,4-.91C95.29,81.06,95.31,82.21,95.33,83.35Z"/><path class="cls-9" d="M22.39,45.15a41.41,41.41,0,0,1,4.86-1c2.38-.21,3.09.7,2.73,2.91a2.46,2.46,0,0,0,.39,1.38c3,5.65-.77,6.49-5,7.41-5,1.1-9.9,2.57-14.84,3.9-1.68.46-3.47,1-4-1.39C6.09,56.3,7.9,56,9.31,55.61c4.32-1.18,8.66-2.25,13-3.47,1.8-.51,4.09-.53,4.47-3.66C20.35,50.16,14.17,51.83,8,53.35c-1.08.27-2.73,1.47-3.37-.51-.55-1.73.6-2.93,2.18-3.36,4.63-1.29,9.3-2.44,14-3.64A1.31,1.31,0,0,1,22.39,45.15Z"/><path class="cls-10" d="M19.51,69.93C19.45,68.79,21,69.4,21,68.66c0-1.1-1.14-1.23-1.78-.91-2.61,1.29-3.77-.3-4.34-2.31-1-3.35,3.1-2.36,4.15-4.34.85-1.59,3.16-1.76,4.83-.49s1.08,2.89.68,4.81C23.93,68.49,23,70.43,19.51,69.93Z"/><path class="cls-11" d="M25.47,23.17c1.41,2.68.92,4.9-1.71,6.47-1,.6-1.7,2.57-3.21,1.43-1.77-1.34.13-2,.8-3,1.22-1.85-2.33-1.61-1.59-3.63l5.75-1.23Z"/><path class="cls-12" d="M35.63,56.22c3.67-1.55,3,1.68,3.53,3.35.6,2,1,4.43-1.42,5.64-2,1-2-.9-2.22-2.11-.34-1.66,1.11-3.55-.6-5.06C33.73,56.88,34.87,56.62,35.63,56.22Z"/><path class="cls-13" d="M35.63,56.22c-.24.61-.48,1.22-.71,1.82a3.79,3.79,0,0,1-.38.32c-1.63,1-3.21,2.64-5.31,1.39-1.13-.67-.61-1.85.2-2.47C31.27,55.86,33.06,53.61,35.63,56.22Z"/><path class="cls-14" d="M13.2,63.38c-.42,1.63-1.14,2.67-2.84,2.07C9,65,6.77,65.29,6.68,63.54c-.12-2.28,2.5-1.48,3.81-2.09S12.84,62.08,13.2,63.38Z"/><path class="cls-15" d="M22.39,45.15l-1.67.69-3.46-3.37a9.14,9.14,0,0,1,2.51-1.27C23.34,40.64,23.81,42.31,22.39,45.15Z"/><path class="cls-16" d="M10.46,26.43c1.77.29,2.15,1.76,2.6,3.12A1,1,0,0,1,11.82,31c-1.5-.35-3.38-.61-3.32-2.79C8.53,27.19,9.37,26.58,10.46,26.43Z"/><path class="cls-17" d="M27.53,68.2C25.94,68.08,26.4,67,26.47,66c.09-1.27-.23-2.93,1.6-3a1.74,1.74,0,0,1,1.69,2.42C29.44,66.56,29.36,68.15,27.53,68.2Z"/><path class="cls-18" d="M27.05,39.89c1.77-2.09,3.16-3.59,5.54-3.44.25,0,.73,1,.63,1.12C31.78,39.09,30.36,40.75,27.05,39.89Z"/><path class="cls-19" d="M10.14,18.42c.38,3-2,2.95-3.78,3.47-.93.27-1.56-.45-1.7-1.29C4.31,18.54,6,19.39,6.9,19.14,8,18.85,9.06,18.65,10.14,18.42Z"/><path class="cls-11" d="M25.51,23.2c-.3-1.11-3.46-1.27-1.09-3.24.77-.63,1.89-1.38,2.59-.28,1,1.64,0,2.75-1.54,3.49Z"/><path class="cls-20" d="M89.57,9c1.89-.22,2.73.8,3,2.53.21,1.51.55,3.13-1.45,3.67-9.91,2.69-19.83,5.39-29.78,8-2.28.58-2.63-1.4-3-3.05-.63-2.55,1.11-3.18,3-3.67q13.18-3.57,26.38-7.07C88.25,9.17,88.91,9.1,89.57,9Z"/><path class="cls-21" d="M90.45,72.56c1.49,1,.64,2.32.49,3.54,1.18,2.38-.41,2.78-2.19,3.2-2.73.65-5.61,1-8.1,2.22-4.66,2.2-6.31.35-7.13-4.08-.59-3.11-.35-5.15,3.29-5.68A22.41,22.41,0,0,0,81,70.31c1.08-.11,2.31.16,3-1.08C87.24,68.11,90.1,67.88,90.45,72.56Z"/><path class="cls-3" d="M90.45,72.56c-.85-3.7-3.68-3.52-6.52-3.33a31.41,31.41,0,0,1,10.8-2.84C92,67.56,89.54,68.88,90.45,72.56Z"/></g></g></svg>