<svg xmlns="http://www.w3.org/2000/svg" viewBox="0 0 95.61 96.18"><defs><style>.cls-1{fill:#f7d572;}.cls-2{fill:#4c5257;}.cls-3{fill:#5a6b6e;}.cls-4{fill:#f5bc28;}.cls-5{fill:#3e4044;}.cls-6{fill:#8a9797;}.cls-7{fill:#e1d6dd;}.cls-8{fill:#313c41;}.cls-9{fill:#f7d574;}.cls-10{fill:#242627;}.cls-11{fill:#3f3b32;}.cls-12{fill:#8b8ea4;}.cls-13{fill:#cf8120;}.cls-14{fill:#a9b0b3;}.cls-15{fill:#f0990f;}.cls-16{fill:#864c30;}.cls-17{fill:#f78336;}.cls-18{fill:#f69350;}.cls-19{fill:#705f51;}.cls-20{fill:#79612b;}.cls-21{fill:#131a1c;}.cls-22{fill:#686d6e;}.cls-23{fill:#242526;}.cls-24{fill:#625d59;}.cls-25{fill:#7c4935;}.cls-26{fill:#f5e1d1;}.cls-27{fill:#f5decc;}.cls-28{fill:#6c463b;}.cls-29{fill:#674237;}</style></defs><title>Recurso 15</title><g id="Capa_2" data-name="Capa 2"><g id="Capa_1-2" data-name="Capa 1"><path class="cls-1" d="M62.43,96l-10.52-.08c-.28-4.1,3-6.5,4.81-9.5s1.55-5-1.44-7c-7-4.71-14.2-9.23-21.28-13.86-1.78-1.17-3.84-2.07-4.71-4.27,1.47-4.46-1-6.63-4.44-9-4.1-2.81-9.32-4.38-11.7-9.39.23-3.14.75-6.24-1.59-9-1.71-2-3.6-4.6-1.26-7.11s4.42.59,6.61,1.23a3.21,3.21,0,0,0,4.43-1c3.46-5,7.73-9.61,9.55-15.65,1.06-3.22,3.45-5.69,4.8-8.74C36.75.22,38.78.49,40.81.82l19,.13c1,1.22,2.83.94,3.95,1.87C69,7.18,73.69,7.21,77.68,1.2l14,0c.78,1,.23,2-.29,2.74C86.83,10.84,82.66,18,77.84,24.82a4.73,4.73,0,0,1-2.75,2c-4.1-.06-6.58-3.28-9.78-5.08-2.4-1.36-4.59-3.09-7-4.51A55.55,55.55,0,0,1,50.45,12c-2.8-2.24-5.35-2.36-7.76.6A180.23,180.23,0,0,0,26.26,36.38c-2,3.43-1.13,6.36,2.53,8.36,6.87,3.75,13.12,8.5,19.85,12.49,1.55.92,3.27,1.75,3.87,3.7-1,3.3.09,5.47,3.11,7.29,5,3,9.7,6.29,14.44,9.59,4.16,2.9,4.6,4.71,1.41,8.44A101.53,101.53,0,0,1,62.43,96Z"/><path class="cls-2" d="M75.16,26.19c6.22-7.87,11.09-16.64,16.55-25,2.18-.36,3.45.48,3.47,2.77s-.06,4.49-.09,6.74C94.4,12.6,92.67,13.25,91,14a9.19,9.19,0,0,0-4.73,5.49c-.6,1.71-1.39,3.47.26,5.07s3,.48,4.45-.37a2.57,2.57,0,0,1,1.9-.33c1.49,1.91-.15,5,2.34,6.5q.16,30,.29,60c0,1.74.55,3.72-1.44,4.92-4.54-.42-7.43-3.88-11-6.05-5.2-3.16-7.07-2.52-8.36,3.5-.28,1.3-.2,2.66-1.76,3.2l-.44.06-.45,0c-2.75-4.62-5.51-2.18-8.28,0L62.42,96c1.08-5.16,6.13-7.17,8.84-11.07,1.87-2.7,1.75-4.07-1.1-5.82-5.66-3.47-11-7.48-16.68-10.9-3.27-2-4-3.95-1.6-6.93,1.27-1.5,2.7-.54,4.08-.27,4.51,1.81,8.27,4.89,12.24,7.57,2.58,1.73,4.37,1.81,6.1-1,5.06-8.38,10.53-16.5,16-24.6,1.58-2.33,1.14-3.83-1.17-5.28-3.78-2.39-7.53-4.86-11.16-7.48C76.69,29.23,74.42,28.7,75.16,26.19Z"/><path class="cls-3" d="M29.8,61.38c9.27,6,18.52,12.09,27.85,18,2.53,1.61,2.83,3.32,1.23,5.72-2.37,3.57-4.65,7.2-7,10.8l-5.92,0c-.44-.24-1.32-.27-1.35-.46-1.11-6.16-7-7.12-11-10.09-2.25-1.67-4.64-3.18-7-4.68-4-2.53-4.94-2.31-7.43,1.84A37.41,37.41,0,0,0,15.05,91C14,94.6,12.12,96.26,8.34,95.61a3.52,3.52,0,0,0-2.41.33c-1.41,0-2.95.68-4.13-.72C5,90.92,6.67,85.8,9,81.08,12.39,74.26,18.73,71,24.06,66.49c-2.94-4.73-2.4-6.39,2.72-8.11C28.52,58.64,29,60.14,29.8,61.38Z"/><path class="cls-4" d="M17.05,29.54c-2.3.05-4-4.31-6.18-1.71-2.08,2.43,1,4.41,2.45,6.23,2.48,3,1.54,6.21.58,9.42C10.81,48.9,7,53.83,3.87,59.24c-.71,1.24-1.49,2.61-3.25,2.68C-1.5,55.12,2.2,50.08,5.91,45.18c2.49-3.28,2.95-5.66-1.48-7.43C.85,36.32-.26,33.58.17,29.8,1.06,22,.37,14.24.3,6.46c0-1.9-.53-4.09,1.84-5.19,5,2.15,10.63,3.39,12.57,9.54a3.52,3.52,0,0,1-.91,1.91,21.18,21.18,0,0,0-4.63,6.65,10.38,10.38,0,0,0-.31,1.22c.39,2.76,2.77,2.85,4.72,3.51a5.25,5.25,0,0,1,3.32,2.59A2.8,2.8,0,0,1,17.05,29.54Z"/><path class="cls-5" d="M.62,61.92C3.82,57,7,52,10.28,47.15c1-1.4,1.45-3.41,3.62-3.67,4.06,2.78,8,5.82,12.2,8.25s6.5,4.87,3.69,9.65c-1.39-.19-1.85-1.56-2.83-2.27a6.66,6.66,0,0,0-1.87-1C20.24,55,20,55,16.78,59.56S10.56,69,7.12,73.49a22.55,22.55,0,0,0-4.9,17.23C2.13,92,2,93.29.92,94.2-.5,83.45.6,72.68.62,61.92Z"/><path class="cls-6" d="M5.93,95.94c5.83.18,7.37-4.09,9.41-8.42,5.68-12,5.84-11.93,16.92-4.6,1.1.73,2.2,1.45,3.29,2.2,4.21,2.9,10.33,4,10.44,10.82Z"/><path class="cls-7" d="M13.45,12.14a.56.56,0,0,0,.47-.47,1,1,0,0,1,.89-.81c2.77,1.31,3.31-1.49,4.54-2.67,2.25-2.14,3.39-5.33,6.32-6.88l2.27-.21c.36.35,0,1,.55,1.29.17-.42.25-.87.45-1.28,4,.23,7.86-2.39,11.87-.29-2.28,0-3.63.62-4.44,3.22s-2.89,5-4.42,7.53c-1,1.73-1.21,4.1-3.64,4.75-.51-.22-.7-.75-1.09-1.15.18.6.72.82,1.08,1.23-.85,2.79-1.41,5.8-5.21,6-1.4.08-1.65.87-1.1,2,.91,1.88.29,3.24-1.5,4-2.1.94-3.39-.36-4.53-1.9l-2.48-1.5c-2.06-1.4-5.37-1.44-5.47-5l0,.07C9.83,17.51,11,14.4,13.45,12.14Z"/><path class="cls-8" d="M.92,94.2l.34-4.51a216,216,0,0,1,17.26-30.6c2.13-3.2,4.55-3.49,7.4-1l1,1c-5.06,2.41-5.16,3.37-.56,7.79a34.17,34.17,0,0,0-11.67,8.28A45.41,45.41,0,0,0,5.27,91.94C4.6,94,4,95.25,1.8,95.22Z"/><path class="cls-9" d="M73,95.94a12.35,12.35,0,0,0,.56-3.33c.44-6.55,4.17-8.4,9.45-4.87,3.72,2.49,7.41,5,11.11,7.55C87.11,97,80,95.71,73,95.94Z"/><path class="cls-10" d="M14.85,10.49l-.93,1.18c.55-2.18-.75-3.25-2.39-4.27-3.17-2-6.27-4.08-9.39-6.13A5.08,5.08,0,0,1,3.07,1C7.83.24,12.63.85,17.4.63c3.37-.16,3.65,1.69,2.53,4.08S17.64,9.54,14.85,10.49Z"/><path class="cls-11" d="M77.68,1.2c-5,8-5,8.08-12.84,3.26-1.72-1-4.18-1.15-5-3.51Z"/><path class="cls-12" d="M14.85,10.49,20.51,1H3.07c7.56-1.49,15.08-.49,22.6.35-1.94,4.31-5.81,7.25-8.08,11.33-.36.63-.89,1.12-1.55.86C14.69,13,15.05,11.58,14.85,10.49Z"/><path class="cls-13" d="M93,24c-2.21,1.28-4,4.74-7.11,2s-1.39-6,.09-8.93c1.87-3.64,5.84-4.55,9.08-6.39.59,3.9.19,7.79-.12,11.68C94.31,22.89,94,23.84,93,24Z"/><path class="cls-14" d="M63.81,95.93c1.62-1.63,1.87-5.1,4.92-4.66A4,4,0,0,1,72.09,96Z"/><path class="cls-15" d="M93,24A2.51,2.51,0,0,1,95,22.36c.79,2.66.24,5.36.28,8C91.43,29.33,92.51,26.56,93,24Z"/><path class="cls-16" d="M28.94,1.11c1.41,1.29,1.29,2.52-.13,3.72a1.51,1.51,0,0,1-2.23,0c-1.21-1.72,1-2.46,1.36-3.75A4.78,4.78,0,0,1,28.94,1.11Z"/><path class="cls-17" d="M56.18,62l-4.3-.72A205,205,0,0,0,27.74,45.61c-4.14-2.32-5-5.4-2.91-9.08C30.14,27.33,35.88,18.4,43,10.44c2.21-2.45,4-2.21,6.39-.59,3.14,2.18,6.33,4.27,9.5,6.39a1.47,1.47,0,0,1,.27,1.31C56.11,23.43,52.41,29,50,35.23c-.87,2.3-4,2.73-4.92,5.21-.39.91-2.19,2-.51,2.74s2.35-1.09,2.8-2.51C49.31,38,50.16,34.4,54,33.46c2.74,2.09,4.58,5.38,8.78,5.49,1.4,0,2,2.42,2.61,3.93.37,3.65-2.2,6.08-3.86,8.81-.95,1.55-3,2.55-4.68.92-2.83-2.7-3.66,0-4.69,1.62-1.82,2.76.74,3.25,2.43,4.12C55.83,59.23,57,60.17,56.18,62Z"/><path class="cls-18" d="M65,43.14C63,41.48,61.88,38.73,58.23,39c-2.51.21-2.83-3.23-4.27-4.92A4.32,4.32,0,0,1,54.68,29l4.25-11.83c0-.33,0-.65,0-1,5.62,3,10.2,7.66,16.24,10,4.39,4.62,10.18,7.3,15.32,10.85,2.52,1.75,3.36,2.86,1.39,5.73q-9,13.11-17.42,26.59C72.8,72,71.47,72.25,69,70.5c-4.17-3-8.54-5.69-12.83-8.51a3.85,3.85,0,0,0-2.09-2.93c-.83-1.13-.7-2.53-1.05-3.8-.81-2.87.85-3.23,3-2.61,1.85.55,4.22,2.84,5.35,1.57,1.93-2.16,4.4-4,5.69-6.7.85-1.8,1.55-3.66,2.5-5.41,1.24-1.42,3.07-2.37,3.59-4.4.35-1.19.42-2.48,1.46-3.52-1.82.37-1.75,2-2.44,3.1a7,7,0,0,0-3.08,4C67.52,41.46,67.15,44.3,65,43.14Z"/><path class="cls-19" d="M27.9,16.1c2.09-.85,2.24-3.43,4.05-4.53C30.19,18.15,25.48,23,21.82,28.43c-.74,1.1-2.75,2.62-4.77,1.1-.36-1-.72-2-1.09-2.94.74.35,1.51.64,2.21,1.05,1.12.64,2,.78,3-.38s.46-1.9-.59-2.76c-2.3-1.88.54-4.12.84-3.95,5.43,3,4.95-2.26,6.56-4.52Z"/><path class="cls-20" d="M13.45,12.14a25.23,25.23,0,0,1-5.47,8C8.83,16.83,10.28,13.9,13.45,12.14Z"/><path class="cls-20" d="M8,20.1c.86,2.72,4.07,2.86,5.47,5C10.76,24.41,7.16,24.69,8,20.1Z"/><path class="cls-21" d="M25.92,58.1c-3.28-1.58-5.19-.44-7.17,2.59C13.42,68.84,9.13,77.58,4.06,85.87c-.82,1.35-.89,3.27-2.8,3.82-1.13-6.26.8-11.56,4.6-16.54s6.94-10,10.41-15C19.87,52.94,21.49,52.94,25.92,58.1Z"/><path class="cls-22" d="M24.77,11.25c-2.4,3.57-4.61,7.18-7.23,10.48-.67.84-2.69-.27-2-1.5,2-3.55,4.43-6.85,6.73-10.22.5-.74,1.17-.45,1.68,0A6.56,6.56,0,0,1,24.77,11.25Z"/><path class="cls-23" d="M28,16c-1.45.18-3.44.9-2.61-1.85.26-.86.69-2.6,2.35-1.83,2.29,1,.08,2.49.18,3.75Z"/><path class="cls-24" d="M85.93,21.6a9.13,9.13,0,0,1,4.81-7.25,2.22,2.22,0,0,1,2.78.16c.9.91.3,1.86-.34,2.62a19.11,19.11,0,0,0-3.47,6c-.39,1.11-1,2.24-2.5,1.8S86,23.11,85.93,21.6Z"/><path class="cls-25" d="M65,43.14c1.75.2,1.62-3.08,3.82-2.07,1-.19,1.51.17,1.21,1.27.14,3.94-1.87,7.84-4.6,9.24-2.47,1.26-.2,6.72-4.74,4.72-2.33-1-4.14-3.28-7.85-3,2.28,2,2.69,3.8,1.24,5.79-5.54-1.47-5.65-1.75-2.46-6.06a22.08,22.08,0,0,1,1.87-2.23c.52-.55.11-1.69,1.21-1.84,3.73,4.63,3.56,4.51,7.37-.84C63.22,46.49,64,44.76,65,43.14Z"/><path class="cls-26" d="M58.93,17.21c.21,2.08,1.26,3.36,3.54,3.37C59.89,25.5,55.35,28.82,54,34.12a19.16,19.16,0,0,0-5.22,7c-1.76,1.19-3.08.78-4-1.11a4.69,4.69,0,0,1,3.37-4.4c.58-.2,1.26.22.76-.83-.28-.58-.83-1.59-.68-1.73C53.24,28.75,53.63,21.3,58.93,17.21Z"/><path class="cls-27" d="M44.74,40a6.93,6.93,0,0,0,4,1.11c-.44.88-.81,1.81-1.33,2.64a2.9,2.9,0,0,1-5.29-1C42,41,42.88,40,44.74,40Z"/><path class="cls-28" d="M70,42.34l-1.21-1.27c-1.77-4.07.83-4,3.57-3.77a1.29,1.29,0,0,1,1.55.81A4.23,4.23,0,0,1,70,42.34Z"/><path class="cls-29" d="M74,38.11,72.4,37.3c-3-2.11,0-3.29.91-4.47,1.18-1.5,2.09.28,3.07.79Z"/></g></g></svg>