<svg xmlns="http://www.w3.org/2000/svg" viewBox="0 0 95.31 95.82"><defs><style>.cls-1{fill:#f8d645;}.cls-2{fill:#cecbc8;}.cls-3{fill:#242528;}.cls-4{fill:#070707;}.cls-5{fill:#2f2a1d;}.cls-6{fill:#131212;}</style></defs><title>Recurso 14</title><g id="Capa_2" data-name="Capa 2"><g id="Capa_1-2" data-name="Capa 1"><path class="cls-1" d="M94,.9c1.56,1.22,1.23,3,1.23,4.61,0,28.31,0,56.62.09,84.93,0,3.89-1.31,5.4-5.16,5.38-22.82-.1-45.63-.08-68.44-.11-.68.18-.91-.07-.71-.73a2.92,2.92,0,0,1,1.26-.81,3.27,3.27,0,0,1,1.46-.25c10.44,2,17.82-2.76,24-10.56,2.06-2.59,4.7-4.72,7-7.11,3.58-3.71,3.49-4.5.15-8.28-9-10.24-18.81-19.78-28.45-29.45-1.62-1.63-3.55-3.08-4.07-5.55.86-6.1,3-11.9,4.29-17.91.35-1.61.71-3.5,2.55-4,2.09-.56,3.4,1.11,4.52,2.5,5,6.23,10.82,11.71,16.06,17.73,4.32,5,4.58,4.46,9.53.52,6.65-5.3,12-12,18.8-17.09,3.18-2.34,3.27-4.73.22-7.24a8.85,8.85,0,0,1-1-1.09C76.12,5,74.44,3.46,75.18,1.63c.88-2.16,3.25-1,4.89-1C84.71.62,89.36.22,94,.9Z"/><path class="cls-2" d="M94,.9H75.17a16.31,16.31,0,0,0,5.25,6.7c3.24,2.69,2.44,4.55-.35,7Q68.7,24.72,57.72,35.24c-2.41,2.29-4.06,2.14-6.17-.22-5.77-6.44-11.65-12.78-17.5-19.14-1.43-1.56-2.56-3.45-5.1-4.5-2,7.28-3.9,14.43-5.83,21.57a1.76,1.76,0,0,1-2.25-.37c-7-6.93-14.7-13.3-20.61-21.35C0-.77-.22,1.25,10.29,1,24.11.76,37.92.3,51.74.18c6-.06,12.19,1.32,18.12.62C76.52,0,83.12.33,89.73.12,91.17.07,92.76-.38,94,.9Z"/><path class="cls-3" d="M.26,11.23c5.55,3.45,9.24,8.86,14,13.19,3,2.78,5.95,5.68,8.91,8.53q16.1,16.74,32.17,33.48c5.15,5.36,5.16,5.95-.08,11.32-4.31,4.41-8.91,8.55-13,13.18-3.16,3.59-6.68,5.12-11.38,4.57-3-.35-6-.26-8.95-.36-.39-2.18,1.32-3.23,2.51-4.47,3.75-3.9,7.67-7.63,11.4-11.56,7.63-7.56,7.9-7.8,1-15.65C26.22,51.53,14.38,40.86,2.43,28.53c.07,14.57-.19,27.82.21,41.09.16,6.24.12,12.48,0,18.71,0,2.09.2,4.32-1.63,6C-.62,92.81.2,90.84.2,89.13Q.16,50.18.26,11.23Z"/><path class="cls-4" d="M36.21,80.09l-14.3,15-.26,0a85,85,0,0,1-19.52,0l-1.07-.78q.09-13.09.17-26.19a4,4,0,0,1,4.15-1c7.29,2.76,14.83-.64,22.16,1,1.65.37,3.21-.64,4.79-1.09,3.6-1,5.44.13,5.56,3.9C38,74,37.89,77.24,36.21,80.09Z"/><path class="cls-3" d="M2.13,95.06l19.52,0a.86.86,0,0,0,.06.61C15.19,95.36,8.61,96.52,2.13,95.06Z"/><path class="cls-5" d="M51.3,95.27c4.84-4.84,8.27-9.26,12.9-12.43,1-.69,2.58-1.6,3.64-.63,1.23,1.14,0,2.75-.79,3.44C62.76,89.49,60.09,95.93,51.3,95.27Z"/><path class="cls-6" d="M36.21,80.09a54.19,54.19,0,0,1,.47-8.41c.7-3.65-1.08-4.81-4.39-3.14-2.33,1.17-4.53,2-7.08.73a3.94,3.94,0,0,0-2-.2c-7.38.64-14.74.78-22-1V26.65c2.67,1,3.86,2.86,5.32,4.34C18.68,43.28,31.34,55.05,42.78,68c2.1,2.39,2.59,3.87,0,6C40.47,75.9,38.39,78.06,36.21,80.09Z"/></g></g></svg>