<svg xmlns="http://www.w3.org/2000/svg" viewBox="0 0 104.99 104.75"><defs><style>.cls-1{fill:#fac812;}.cls-2{fill:#5e573b;}.cls-3{fill:#f9c812;}.cls-4{fill:#5b543c;}.cls-5{fill:#5c553c;}.cls-6{fill:#e1b515;}.cls-7{fill:#61593a;}.cls-8{fill:#f0c012;}</style></defs><title>Recurso 3</title><g id="Capa_2" data-name="Capa 2"><g id="Capa_1-2" data-name="Capa 1"><path class="cls-1" d="M52.74,0Q75.48,0,98.22,0c5.76,0,6.7,1,6.7,6.66,0,30.49,0,61,.07,91.46,0,4.69-1.7,6.62-6.43,6.61q-46-.14-92,0C2,104.76,0,103.05,0,98.26c.11-30.48,0-61,.07-91.45C.07,1.16,1.19,0,6.75,0,22.08,0,37.41,0,52.74,0Z"/><path class="cls-2" d="M47.28,82h-2c-3.32,0-7.05.83-9.87-.39-3.36-1.45-1.33-6-2.67-8.94a63.28,63.28,0,0,0-4.18-8.46c-6.38-9.87-6.11-21.31.54-30.39a26.26,26.26,0,0,1,28.31-9.88c11,2.93,18.22,11.61,19.65,23.2A122.45,122.45,0,0,0,79.42,59.8c.63,2.74.71,4.72-2.94,4.34-2.63-.28-3.7.88-3.37,3.45a6.68,6.68,0,0,1,0,1C73,76.81,73,76.83,64.64,77c-2,0-4.06-.32-4.1,2.78,0,2-1.69,2.15-3.28,2.14C53.93,81.93,50.6,82,47.28,82Z"/><path class="cls-3" d="M56.26,74.9c-.23,2.33,2.45,2.29,1.56,4-.8,1.56-2.34.94-3.57,1-4.82.08-9.65,0-14.47,0-2.06,0-3.93.2-4.15-2.82-.4-5.63-3.18-10.33-6-15.11-5.28-9-5-18.21,1.08-26.73,6-8.33,14.48-11.79,24.47-9.82,10.17,2,16.77,8.51,19.24,18.68,1.2,5,1.61,10.15,2.78,15.14.6,2.6-.43,3-2.41,2.8C71.54,61.75,71,63.53,71,66.31c-.16,8.61-.25,8.61-8.68,8.59Z"/><path class="cls-4" d="M47.45,34.87c3.36-.17,10.29,6.44,10.7,10.22s-6.4,10.91-10.43,11C44,56.23,37,49.4,36.9,45.61,36.79,42.05,43.66,35.06,47.45,34.87Z"/><path class="cls-5" d="M34.47,52.38C28.25,43.56,35,31,45.72,29.86c3.09-.34,6.6,1.43,9.24-1.89.7-.88,1.69.54,2.34,1.21a2.07,2.07,0,0,1,0,3.11c-.77.87-1.47,1.7-2.93,1.21-13.53-4.52-22.25,3-19.56,16.85A8.16,8.16,0,0,1,34.47,52.38Z"/><path class="cls-6" d="M47,37.36c2.24-.2,9.6,6.13,9,7.9-.64,2-1.94,3.84-2.69,6-.35.95-4.07.87-5.71,2.6a8.33,8.33,0,0,0-6.12-2.35c.16-2.24-1.56-4-1.82-5.79s1.42-4,2.14-6.12C42.2,38.41,46.06,39.73,47,37.36Z"/><path class="cls-7" d="M46.73,40.91c4-.06,5.51,1.53,5.46,4.56s-1.58,4.69-4.61,4.69S43,48.47,42.9,45.53A4.23,4.23,0,0,1,46.73,40.91Z"/><path class="cls-8" d="M47.77,48.15C46,48,44.94,47.2,44.91,45.43S46,42.87,47.76,42.9a2.41,2.41,0,0,1,2.57,2.4A2.46,2.46,0,0,1,47.77,48.15Z"/></g></g></svg>