<svg xmlns="http://www.w3.org/2000/svg" viewBox="0 0 25.26 25.51"><defs><style>.cls-1{fill:#f8c712;}</style></defs><title>Recurso 4</title><g id="Capa_2" data-name="Capa 2"><g id="Capa_1-2" data-name="Capa 1"><path class="cls-1" d="M25.26,13.09c0,12.42,0,12.42-12.36,12.42C0,25.51,0,25.51,0,12.61,0,0,0,0,12.61,0S25.26,0,25.26,13.09Z"/><path d="M7.17,6.31l.95-1L7.45,9H6.27l.17-3.74H17.93L18.1,9H16.92l-.68-3.74,1,1ZM12.39,18.2l2.95.31v.85H9v-.85L12,18.2Zm-1.15-6.42c0-2.17,0-4.35-.07-6.52h2c-.06,2.12-.06,4.31-.06,6.52v1.05c0,2.17,0,4.36.06,6.53h-2c.07-2.13.07-4.32.07-6.53Z"/></g></g></svg>