<svg xmlns="http://www.w3.org/2000/svg" viewBox="0 0 25.26 25.35"><defs><style>.cls-1{fill:#f9c711;}.cls-2{fill:#191711;}.cls-3{fill:#d4a912;}</style></defs><title>Recurso 10</title><g id="Capa_2" data-name="Capa 2"><g id="Capa_1-2" data-name="Capa 1"><path class="cls-1" d="M13,0C25.26,0,25.26,0,25.26,12.44c0,12.91,0,12.91-12.77,12.91C0,25.35,0,25.35,0,13.18,0,0,0,0,13,0Z"/><path class="cls-2" d="M12.67,20.19c-2.45-2.32-3.5-5.32-4.9-8.06C6.53,9.7,7.41,7.59,9.36,6a4.75,4.75,0,0,1,6-.26,4.72,4.72,0,0,1,2,5.64C16.44,14.54,14.61,17.29,12.67,20.19Z"/><path class="cls-3" d="M15.17,9.93c-.18,1.9-1.28,2.75-2.68,2.73a2.4,2.4,0,0,1-2.48-3A2.27,2.27,0,0,1,12.79,7.5,2.49,2.49,0,0,1,15.17,9.93Z"/></g></g></svg>